<svg width="374" height="374" viewBox="0 0 374 374" fill="none" xmlns="http://www.w3.org/2000/svg">
<path d="M281.376 21.5488C230.862 21.5488 189.916 48.2509 189.916 99.7632C189.916 151.276 230.862 193.026 281.376 193.026C331.884 193.026 372.827 151.276 372.827 99.7632C372.827 48.2509 331.884 21.5488 281.376 21.5488Z" fill="#FBC4AC"/>
<path d="M207.975 99.7632C207.975 51.3582 244.131 11.5734 290.404 6.95087C287.434 6.65126 284.423 6.49718 281.376 6.49718C230.862 6.49718 189.916 48.2509 189.916 99.7632C189.916 151.276 230.862 193.026 281.376 193.026C284.423 193.026 287.434 192.872 290.404 192.576C244.131 187.95 207.975 148.165 207.975 99.7632Z" fill="#E3B098"/>
<path d="M330.123 119.318C327.005 119.318 324.479 116.792 324.479 113.673V104.195C324.479 101.079 327.005 98.5505 330.123 98.5505C333.242 98.5505 335.767 101.079 335.767 104.195V113.673C335.767 116.792 333.242 119.318 330.123 119.318Z" fill="#3A484A"/>
<path d="M336.578 133.251H323.669C320.55 133.251 318.025 130.723 318.025 127.607C318.025 124.491 320.55 121.963 323.669 121.963H336.578C339.696 121.963 342.222 124.491 342.222 127.607C342.222 130.723 339.696 133.251 336.578 133.251Z" fill="#F98084"/>
<path d="M232.62 119.318C229.501 119.318 226.976 116.792 226.976 113.673V104.195C226.976 101.079 229.501 98.5505 232.62 98.5505C235.739 98.5505 238.264 101.079 238.264 104.195V113.673C238.264 116.792 235.739 119.318 232.62 119.318Z" fill="#3A484A"/>
<path d="M239.074 133.251H226.166C223.047 133.251 220.522 130.723 220.522 127.607C220.522 124.491 223.047 121.963 226.166 121.963H239.074C242.193 121.963 244.718 124.491 244.718 127.607C244.718 130.723 242.193 133.251 239.074 133.251Z" fill="#F98084"/>
<path d="M281.37 132.714C276.343 132.714 271.617 130.606 268.402 126.928C266.35 124.579 266.593 121.015 268.938 118.964C271.286 116.912 274.85 117.152 276.902 119.5C277.972 120.724 279.601 121.426 281.37 121.426C283.139 121.426 284.772 120.724 285.842 119.497C287.893 117.152 291.457 116.912 293.805 118.964C296.154 121.015 296.393 124.582 294.339 126.928C291.126 130.606 286.398 132.714 281.37 132.714Z" fill="#3A484A"/>
<path d="M368.45 71.1836C362.17 -5.27593 331.339 6.49717 281.376 6.49717C243.603 6.49717 225.464 2.71643 217.737 0.305309C214.647 -0.661992 211.319 0.730464 209.85 3.61525C203.681 15.7222 189.916 48.4734 189.916 99.7632C189.916 99.7632 211.79 60.3721 281.373 60.3721C313.745 60.3721 311.037 71.1836 368.45 71.1836Z" fill="#C86D5C"/>
<path d="M227.912 3.61525C228.055 3.33561 228.217 3.0731 228.394 2.82486C223.623 1.95457 220.165 1.06146 217.737 0.305309C214.647 -0.661992 211.319 0.730464 209.85 3.61525C203.681 15.7222 189.916 48.4734 189.916 99.7632C189.916 99.7632 195.152 90.3441 208.632 80.7196C211.431 40.3184 222.542 14.1471 227.912 3.61525Z" fill="#AD4F3D"/>
<path d="M2.25705 277.122V337.245C2.25705 352.223 13.5194 364.809 28.4084 366.464L71.623 371.272L2.25705 277.122Z" fill="#3A484A"/>
<path d="M185.034 277.122V337.245C185.034 352.223 173.775 364.809 158.886 366.464L115.671 371.272L185.034 277.122Z" fill="#3A484A"/>
<path d="M185.034 277.122C185.028 277.13 185.028 277.13 185.028 277.13L91.6168 206.512L2.26559 277.13L2.25703 277.122C2.21423 278.323 2.19141 279.521 2.19141 280.731C2.19141 332.243 43.1347 374 93.6455 374C144.159 374 185.102 332.243 185.102 280.731C185.102 279.524 185.08 278.323 185.034 277.122Z" fill="#FBC4AC"/>
<path d="M17.3857 274.151C12.4465 275.532 7.39314 276.562 2.26559 277.13L2.25703 277.122C2.21423 278.323 2.19141 279.521 2.19141 280.731C2.19141 332.243 43.1348 374 93.6455 374C96.2564 374 98.8387 373.883 101.392 373.663C55.975 369.514 19.9024 327.005 17.3857 274.151Z" fill="#E3B098"/>
<path d="M44.8953 300.285C41.7794 300.285 39.2513 297.76 39.2513 294.641V285.162C39.2513 282.047 41.7794 279.518 44.8953 279.518C48.0141 279.518 50.5393 282.047 50.5393 285.162V294.641C50.5393 297.76 48.0141 300.285 44.8953 300.285Z" fill="#3A484A"/>
<path d="M51.3497 314.219H38.4409C35.3222 314.219 32.7969 311.693 32.7969 308.575C32.7969 305.459 35.3222 302.931 38.4409 302.931H51.3497C54.4684 302.931 56.9937 305.459 56.9937 308.575C56.9937 311.693 54.4684 314.219 51.3497 314.219Z" fill="#F98084"/>
<path d="M142.399 300.285C139.283 300.285 136.755 297.76 136.755 294.641V285.162C136.755 282.047 139.283 279.518 142.399 279.518C145.517 279.518 148.043 282.047 148.043 285.162V294.641C148.043 297.76 145.517 300.285 142.399 300.285Z" fill="#3A484A"/>
<path d="M148.853 314.219H135.944C132.825 314.219 130.3 311.693 130.3 308.575C130.3 305.459 132.825 302.931 135.944 302.931H148.853C151.972 302.931 154.497 305.459 154.497 308.575C154.497 311.693 151.972 314.219 148.853 314.219Z" fill="#F98084"/>
<path d="M93.6455 313.685C88.6179 313.685 83.8926 311.576 80.6769 307.895C78.6253 305.55 78.8678 301.983 81.2133 299.932C83.5588 297.883 87.1255 298.123 89.1771 300.468C90.2472 301.695 91.8764 302.397 93.6455 302.397C95.4147 302.397 97.0468 301.695 98.1168 300.468C100.168 298.123 103.735 297.883 106.081 299.934C108.429 301.986 108.669 305.55 106.617 307.898C103.401 311.576 98.6732 313.685 93.6455 313.685Z" fill="#3A484A"/>
<path d="M2.25705 277.122L2.26561 277.13C51.3497 271.7 93.6455 224.291 93.6455 224.291C93.6455 224.291 135.944 271.7 185.028 277.13C185.028 277.13 185.028 277.13 185.034 277.122C183.176 227.284 142.975 187.468 93.6455 187.468C44.3189 187.468 4.11746 227.284 2.25705 277.122Z" fill="#3A484A"/>
<path d="M101.549 187.819C98.9443 187.591 96.3106 187.468 93.6455 187.468C44.3189 187.468 4.11746 227.284 2.25705 277.124L2.26561 277.13C7.68991 276.531 12.1754 275.655 17.3857 274.151C20.6243 228.491 56.9366 191.711 101.549 187.819Z" fill="#333333"/>
<path d="M150.285 127.13V70.7556C150.285 50.6163 133.961 34.2892 113.819 34.2892H38.6578C18.5185 34.2892 2.19141 50.6163 2.19141 70.7556V122.274C2.19141 142.413 18.5185 158.737 38.6578 158.737H167.751L150.285 127.13Z" fill="#D1B280"/>
<path d="M115.602 76.3996H36.8744C33.7585 76.3996 31.2304 73.8715 31.2304 70.7556C31.2304 67.6368 33.7585 65.1116 36.8744 65.1116H115.602C118.721 65.1116 121.246 67.6368 121.246 70.7556C121.246 73.8715 118.721 76.3996 115.602 76.3996Z" fill="#EFEDEE"/>
<path d="M115.602 102.157H36.8744C33.7585 102.157 31.2304 99.632 31.2304 96.5132C31.2304 93.3973 33.7585 90.8692 36.8744 90.8692H115.602C118.721 90.8692 121.246 93.3973 121.246 96.5132C121.246 99.632 118.721 102.157 115.602 102.157Z" fill="#EFEDEE"/>
<path d="M85.9728 127.918H36.8744C33.7585 127.918 31.2304 125.39 31.2304 122.274C31.2304 119.155 33.7585 116.63 36.8744 116.63H85.9728C89.0887 116.63 91.6168 119.155 91.6168 122.274C91.6168 125.39 89.0887 127.918 85.9728 127.918Z" fill="#EFEDEE"/>
<path d="M224.733 311.351V254.974C224.733 234.834 241.06 218.51 261.2 218.51H336.361C356.5 218.51 372.827 234.834 372.827 254.974V306.492C372.827 326.631 356.5 342.958 336.361 342.958H207.268L224.733 311.351Z" fill="#D1B280"/>
<path d="M338.144 260.62H259.416C256.298 260.62 253.772 258.092 253.772 254.976C253.772 251.858 256.298 249.332 259.416 249.332H338.144C341.263 249.332 343.788 251.858 343.788 254.976C343.788 258.092 341.26 260.62 338.144 260.62Z" fill="#EFEDEE"/>
<path d="M338.144 286.378H259.416C256.298 286.378 253.772 283.85 253.772 280.734C253.772 277.618 256.298 275.09 259.416 275.09H338.144C341.263 275.09 343.788 277.618 343.788 280.734C343.788 283.85 341.26 286.378 338.144 286.378Z" fill="#EFEDEE"/>
<path d="M338.144 312.138H289.046C285.93 312.138 283.402 309.61 283.402 306.494C283.402 303.376 285.93 300.85 289.046 300.85H338.144C341.26 300.85 343.788 303.376 343.788 306.494C343.788 309.61 341.26 312.138 338.144 312.138Z" fill="#EFEDEE"/>
</svg>
