<svg width="95" height="94" viewBox="0 0 95 94" fill="none" xmlns="http://www.w3.org/2000/svg">
<path fill-rule="evenodd" clip-rule="evenodd" d="M47.5 92C72.649 92 93 71.8329 93 47C93 22.1671 72.649 2 47.5 2C22.351 2 2 22.1671 2 47C2 71.8329 22.351 92 47.5 92ZM47.5 94C73.7335 94 95 72.9574 95 47C95 21.0426 73.7335 0 47.5 0C21.2665 0 0 21.0426 0 47C0 72.9574 21.2665 94 47.5 94Z" fill="#D1B280"/>
<path d="M72 47C72 45.4921 71.8585 43.9828 71.5784 42.5175C71.452 41.8543 70.8712 41.3749 70.1969 41.3749H48.0938C47.3165 41.3749 46.6875 42.0039 46.6875 42.7812V51.2187C46.6875 51.9959 47.3165 52.6249 48.0938 52.6249H59.4344C58.7278 54.0553 57.754 55.2965 56.6106 56.3407L64.5587 64.2888C69.1319 59.9318 72 53.8005 72 47Z" fill="#D1B280"/>
<path d="M48 34.25C50.759 34.25 53.3833 35.1262 55.5888 36.7851C56.1463 37.204 56.9333 37.1532 57.4276 36.6546L63.4289 30.6533C63.7077 30.3745 63.8574 29.9913 63.8396 29.5972C63.8217 29.2031 63.6404 28.835 63.3383 28.5809C59.0441 24.9817 53.5962 23 48 23C39.7642 23 32.4883 27.1863 28.1872 33.5424L36.4417 41.7969C38.411 37.361 42.8418 34.25 48 34.25Z" fill="#D1B280"/>
<path d="M48 71C53.3684 71 58.3119 69.2 62.3065 66.2012L54.2092 58.1039C52.3584 59.1461 50.243 59.75 48 59.75C42.8418 59.75 38.411 56.639 36.4417 52.2031L28.1872 60.4576C32.4883 66.8137 39.7642 71 48 71Z" fill="#D1B280"/>
<path d="M35.4548 49.0255C35.347 48.3618 35.25 47.6935 35.25 47C35.25 46.3065 35.347 45.6382 35.4548 44.9745L26.6306 36.1504C24.9611 39.411 24 43.0921 24 47C24 50.9079 24.9611 54.589 26.6307 57.8495L35.4548 49.0255Z" fill="#D1B280"/>
</svg>
