<svg width="94" height="94" viewBox="0 0 94 94" fill="none" xmlns="http://www.w3.org/2000/svg">
<path fill-rule="evenodd" clip-rule="evenodd" d="M47 92C71.8528 92 92 71.8528 92 47C92 22.1472 71.8528 2 47 2C22.1472 2 2 22.1472 2 47C2 71.8528 22.1472 92 47 92ZM47 94C72.9574 94 94 72.9574 94 47C94 21.0426 72.9574 0 47 0C21.0426 0 0 21.0426 0 47C0 72.9574 21.0426 94 47 94Z" fill="#D1B280"/>
<path d="M65.8692 31.4805H27.1309C26.495 31.4805 25.8997 31.6335 25.3611 31.8857L46.4082 52.4849L51.1256 48.0478C51.1257 48.0477 51.1265 48.0468 51.1265 48.0468L67.6396 31.886C67.1009 31.6337 66.5052 31.4805 65.8692 31.4805Z" fill="#D1B280"/>
<path d="M69.5866 33.792L54.0469 49.0002L69.586 64.2087C69.8437 63.6816 70 63.0989 70 62.4766V35.5234C70 34.9015 69.8441 34.3189 69.5866 33.792Z" fill="#D1B280"/>
<path d="M23.414 33.7913C23.1563 34.3184 23 34.9011 23 35.5234V62.4766C23 63.0985 23.1561 63.6813 23.4136 64.2082L38.9533 49L23.414 33.7913Z" fill="#D1B280"/>
<path d="M52.0998 50.9059L47.3818 55.3435C47.1129 55.6067 46.7606 55.7384 46.4083 55.7384C46.0561 55.7384 45.7037 55.6067 45.4348 55.3435L40.9004 50.9057L25.3605 66.114C25.8992 66.3663 26.4948 66.5195 27.1309 66.5195H65.8692C66.5051 66.5195 67.1004 66.3665 67.6389 66.1143L52.0998 50.9059Z" fill="#D1B280"/>
</svg>
