<svg width="150" height="160" viewBox="0 0 150 160" fill="none" xmlns="http://www.w3.org/2000/svg">
<g clip-path="url(#clip0)" filter="url(#filter0_d)">
<path d="M73.9311 72.2554C83.8577 72.2554 92.4534 68.6952 99.4766 61.6708C106.5 54.6476 110.06 46.0543 110.06 36.1266C110.06 26.2023 106.5 17.6078 99.4755 10.5823C92.4511 3.56024 83.8566 0 73.9311 0C64.0034 0 55.41 3.56024 48.3868 10.5835C41.3635 17.6067 37.8021 26.2011 37.8021 36.1266C37.8021 46.0543 41.3635 54.6488 48.3879 61.672C55.4123 68.694 64.0068 72.2554 73.9311 72.2554V72.2554Z" fill="#D1B280"/>
<path d="M137.147 115.342C136.945 112.419 136.535 109.231 135.932 105.864C135.323 102.472 134.539 99.2657 133.601 96.3348C132.631 93.3056 131.313 90.3141 129.683 87.4474C127.992 84.4719 126.005 81.881 123.776 79.749C121.445 77.5185 118.591 75.7253 115.29 74.4172C112.001 73.116 108.356 72.4568 104.457 72.4568C102.926 72.4568 101.445 73.0851 98.5851 74.9471C96.825 76.0949 94.7662 77.4224 92.4683 78.8907C90.5033 80.1427 87.8414 81.3157 84.5535 82.3777C81.3457 83.4157 78.0888 83.9421 74.8741 83.9421C71.6595 83.9421 68.4036 83.4157 65.1924 82.3777C61.908 81.3168 59.2461 80.1438 57.2834 78.8918C55.0072 77.4373 52.9472 76.1098 51.1608 74.9459C48.3044 73.084 46.8224 72.4557 45.2911 72.4557C41.391 72.4557 37.7472 73.116 34.4593 74.4183C31.1611 75.7241 28.3058 77.5174 25.9724 79.7501C23.7442 81.8833 21.7564 84.4731 20.0672 87.4474C18.4387 90.3141 17.1204 93.3045 16.1499 96.336C15.2126 99.2668 14.4287 102.472 13.8199 105.864C13.2168 109.227 12.8071 112.416 12.6045 115.346C12.4054 118.216 12.3047 121.195 12.3047 124.203C12.3047 132.033 14.7938 138.372 19.7021 143.047C24.5499 147.66 30.9643 150.001 38.7646 150.001H110.991C118.791 150.001 125.203 147.661 130.052 143.047C134.961 138.376 137.45 132.036 137.45 124.202C137.449 121.18 137.347 118.199 137.147 115.342V115.342Z" fill="#D1B280"/>
</g>
<defs>
<filter id="filter0_d" x="-2" y="0" width="160" height="160" filterUnits="userSpaceOnUse" color-interpolation-filters="sRGB">
<feFlood flood-opacity="0" result="BackgroundImageFix"/>
<feColorMatrix in="SourceAlpha" type="matrix" values="0 0 0 0 0 0 0 0 0 0 0 0 0 0 0 0 0 0 127 0"/>
<feOffset dx="3" dy="5"/>
<feGaussianBlur stdDeviation="2.5"/>
<feColorMatrix type="matrix" values="0 0 0 0 0 0 0 0 0 0 0 0 0 0 0 0 0 0 0.25 0"/>
<feBlend mode="normal" in2="BackgroundImageFix" result="effect1_dropShadow"/>
<feBlend mode="normal" in="SourceGraphic" in2="effect1_dropShadow" result="shape"/>
</filter>
<clipPath id="clip0">
<rect width="150" height="150" fill="white"/>
</clipPath>
</defs>
</svg>
