<svg width="160" height="160" viewBox="0 0 160 160" fill="none" xmlns="http://www.w3.org/2000/svg">
<g clip-path="url(#clip0)" filter="url(#filter0_d)">
<path d="M148.471 57.9208L136.942 55.4146C135.939 52.3453 134.698 49.3515 133.232 46.4676L139.614 36.5398C140.754 34.766 140.503 32.4371 139.013 30.9471L121.053 12.9868C119.563 11.4967 117.234 11.2461 115.46 12.3859L105.532 18.7683C102.648 17.3023 99.6547 16.0606 96.5854 15.0581L94.0792 3.52936C93.6317 1.46942 91.8075 0 89.6995 0H64.3005C62.1925 0 60.3683 1.46942 59.9208 3.52936L57.4146 15.0581C54.3453 16.0606 51.3515 17.3023 48.4676 18.7683L38.5398 12.3859C36.766 11.2461 34.4371 11.4967 32.9471 12.9868L14.9868 30.9471C13.4967 32.4371 13.2461 34.766 14.3859 36.5398L20.7683 46.4676C19.3023 49.3515 18.0606 52.3453 17.0581 55.4146L5.52936 57.9208C3.46942 58.3694 2 60.1925 2 62.3005V87.6995C2 89.8075 3.46942 91.6306 5.52936 92.0792L17.0581 94.5854C18.0606 97.6547 19.3023 100.648 20.7683 103.532L14.3859 113.46C13.2461 115.234 13.4967 117.563 14.9868 119.053L32.9471 137.013C34.4371 138.503 36.766 138.754 38.5398 137.614L48.4676 131.232C51.3515 132.698 54.3453 133.939 57.4146 134.942L59.9208 146.471C60.3683 148.531 62.1925 150 64.3005 150H89.6995C91.8075 150 93.6317 148.531 94.0792 146.471L96.5854 134.942C99.6547 133.939 102.648 132.698 105.532 131.232L115.46 137.614C117.234 138.754 119.563 138.504 121.053 137.013L139.013 119.053C140.503 117.563 140.754 115.234 139.614 113.46L133.232 103.532C134.698 100.648 135.939 97.6547 136.942 94.5854L148.471 92.0792C150.531 91.6306 152 89.8075 152 87.6995V62.3005C152 60.1925 150.531 58.3694 148.471 57.9208V57.9208ZM103.892 75C103.892 89.8281 91.8281 101.892 77 101.892C62.1719 101.892 50.1075 89.8281 50.1075 75C50.1075 60.1719 62.1719 48.1075 77 48.1075C91.8281 48.1075 103.892 60.1719 103.892 75V75Z" fill="#D1B280"/>
</g>
<defs>
<filter id="filter0_d" x="0" y="0" width="160" height="160" filterUnits="userSpaceOnUse" color-interpolation-filters="sRGB">
<feFlood flood-opacity="0" result="BackgroundImageFix"/>
<feColorMatrix in="SourceAlpha" type="matrix" values="0 0 0 0 0 0 0 0 0 0 0 0 0 0 0 0 0 0 127 0"/>
<feOffset dx="3" dy="5"/>
<feGaussianBlur stdDeviation="2.5"/>
<feColorMatrix type="matrix" values="0 0 0 0 0 0 0 0 0 0 0 0 0 0 0 0 0 0 0.25 0"/>
<feBlend mode="normal" in2="BackgroundImageFix" result="effect1_dropShadow"/>
<feBlend mode="normal" in="SourceGraphic" in2="effect1_dropShadow" result="shape"/>
</filter>
<clipPath id="clip0">
<rect width="150" height="150" fill="white" transform="translate(2)"/>
</clipPath>
</defs>
</svg>
